<svg width="198" height="199" viewBox="0 0 198 199" fill="none" xmlns="http://www.w3.org/2000/svg">
<path d="M99.4396 0.650208H98.9898C44.5732 0.650208 0.459839 44.7766 0.459839 99.2092V99.6591C0.459839 154.092 44.5732 198.218 98.9898 198.218H99.4396C153.856 198.218 197.97 154.092 197.97 99.6591V99.2092C197.97 44.7766 153.856 0.650208 99.4396 0.650208Z" fill="#14542E"/>
<path d="M91.5718 103.148C89.8557 100.995 87.8905 99.3476 85.69 98.2332C87.6345 97.0496 89.309 95.596 90.693 93.8656C93.0249 90.9446 94.2082 87.2829 94.2082 82.9776C94.2082 79.3852 93.2602 76.0836 91.3849 73.1695C89.5166 70.2555 86.7349 67.9159 83.1159 66.2131C79.573 64.545 75.3035 63.7005 70.4389 63.7005H42.767V135.182H71.7122C76.4522 135.182 80.6871 134.316 84.2922 132.614C87.9666 130.883 90.8314 128.461 92.7966 125.422C94.7687 122.369 95.7721 118.902 95.7721 115.115C95.7721 110.679 94.3604 106.657 91.5718 103.155V103.148ZM76.8743 90.1209C75.1651 91.5053 72.6671 92.2113 69.4633 92.2113H57.4921V76.3743H69.4633C72.6533 76.3743 75.1374 77.1011 76.8466 78.5408C78.4866 79.9182 79.2823 81.8217 79.2823 84.3413C79.2823 86.8608 78.4935 88.8127 76.8743 90.1209ZM57.4921 104.892H70.3421C73.705 104.892 76.293 105.709 78.2513 107.391C80.1266 109.003 81.04 111.142 81.04 113.939C81.04 116.735 80.1958 118.708 78.452 120.182C76.6459 121.712 74.051 122.487 70.7296 122.487H57.4921V104.892Z" fill="#FFEDD6"/>
<path d="M152.306 91.1937C150.078 87.1652 146.923 83.9882 142.923 81.7594C138.93 79.5306 134.315 78.4023 129.222 78.4023C124.129 78.4023 119.168 79.5652 115.078 81.8563C110.982 84.1543 107.757 87.456 105.501 91.6852C103.245 95.9075 102.104 100.863 102.104 106.415C102.104 111.966 103.28 116.929 105.605 121.144C107.93 125.366 111.182 128.689 115.279 131.015C119.368 133.34 124.06 134.517 129.229 134.517C135.574 134.517 140.965 132.904 145.255 129.727C149.545 126.55 152.548 122.411 154.188 117.434L154.306 117.081H141.754L141.678 117.233C139.263 122.127 135.076 124.605 129.222 124.605C125.146 124.605 121.659 123.311 118.856 120.77C116.123 118.286 114.552 114.963 114.185 110.886H155.233L155.268 110.658C155.531 109.017 155.662 107.162 155.662 105.148C155.662 99.9152 154.534 95.2222 152.306 91.1937ZM119.05 91.9136C121.721 89.5256 124.98 88.3213 128.731 88.3213C132.876 88.3213 136.398 89.5464 139.2 91.969C141.927 94.3224 143.373 97.4856 143.497 101.362H114.303C114.857 97.4233 116.455 94.2462 119.057 91.9205L119.05 91.9136Z" fill="#FFEDD6"/>
<path d="M142.549 65.3479H115.21V71.8266H142.549V65.3479Z" fill="#FFEDD6"/>
</svg>
