<svg width="198" height="199" viewBox="0 0 198 199" fill="none" xmlns="http://www.w3.org/2000/svg">
<path d="M99.2815 0.650208H98.8317C44.4151 0.650208 0.301758 44.7766 0.301758 99.2092V99.6591C0.301758 154.092 44.4151 198.218 98.8317 198.218H99.2815C153.698 198.218 197.811 154.092 197.811 99.6591V99.2092C197.811 44.7766 153.698 0.650208 99.2815 0.650208Z" fill="#14542E"/>
<path d="M161.019 102.006C161.033 101.791 161.04 101.57 161.047 101.348L161.165 98.6001L161.061 98.5724C160.86 84.0505 155.684 70.2901 146.349 59.2983L146.46 59.1806L143.519 56.1558C131.721 44.0358 115.923 37.3633 99.0254 37.3633C90.3481 37.3633 82.003 39.1145 74.1629 42.5546L74.1006 42.5061L71.5542 43.7659C68.1842 45.4341 65.0012 47.3859 62.0326 49.594C60.0536 51.0683 58.1714 52.6465 56.3861 54.3354C55.7218 54.9653 55.0783 55.609 54.4417 56.2666C45.7159 65.2856 39.7926 76.8519 37.7513 89.5049L37.0939 93.6026L37.2392 93.6372C37.0593 95.5614 36.9625 97.5064 36.9625 99.4445C36.9625 115.898 43.5223 131.672 55.0714 143.266L55.0229 143.356L57.6109 145.675C69.0077 155.892 83.7121 161.526 99.0186 161.526C100.105 161.526 101.184 161.498 102.257 161.443C109.786 161.062 117.072 159.332 123.95 156.307C123.95 156.307 123.957 156.307 123.964 156.307L126.656 155.123V155.04C146.689 145.038 160.064 124.598 161.012 102.179C161.012 102.172 161.012 102.165 161.012 102.158C161.012 102.151 161.012 102.137 161.012 102.13V102.033L161.019 102.006ZM151.927 105.397C151.899 105.619 151.871 105.84 151.844 106.062C151.795 106.442 151.747 106.823 151.691 107.197C151.657 107.439 151.615 107.681 151.574 107.924C151.518 108.277 151.456 108.63 151.394 108.983C151.346 109.239 151.297 109.488 151.242 109.744C151.173 110.083 151.11 110.422 151.034 110.755C150.979 111.011 150.916 111.267 150.854 111.523C150.778 111.855 150.695 112.181 150.612 112.506C150.543 112.762 150.474 113.025 150.404 113.281C150.314 113.6 150.225 113.925 150.135 114.243C150.058 114.499 149.982 114.762 149.899 115.018C149.802 115.337 149.699 115.648 149.602 115.967C149.519 116.223 149.429 116.479 149.339 116.735C149.228 117.047 149.117 117.358 149.007 117.669C148.917 117.919 148.82 118.175 148.723 118.424C148.605 118.736 148.481 119.04 148.356 119.352C148.259 119.601 148.156 119.843 148.052 120.092C147.92 120.397 147.789 120.701 147.65 121.006C147.54 121.248 147.436 121.49 147.325 121.726C147.18 122.03 147.035 122.335 146.889 122.639C146.778 122.875 146.661 123.103 146.543 123.338C146.391 123.643 146.225 123.948 146.066 124.252C145.948 124.474 145.83 124.695 145.713 124.917C145.54 125.228 145.36 125.54 145.18 125.851C145.062 126.059 144.945 126.266 144.827 126.467C144.626 126.806 144.419 127.145 144.211 127.478C144.107 127.644 144.004 127.817 143.9 127.99C143.609 128.447 143.312 128.897 143.007 129.347C142.98 129.395 142.945 129.437 142.917 129.485C142.578 129.976 142.232 130.461 141.879 130.945C141.776 131.084 141.665 131.222 141.561 131.361C141.312 131.7 141.056 132.032 140.8 132.364C140.661 132.544 140.516 132.717 140.371 132.897C140.142 133.181 139.907 133.472 139.672 133.749C139.513 133.936 139.347 134.123 139.188 134.309C138.959 134.572 138.731 134.835 138.496 135.099C138.323 135.292 138.15 135.479 137.977 135.666C137.748 135.915 137.513 136.164 137.278 136.414C137.098 136.601 136.911 136.787 136.724 136.974C136.489 137.21 136.254 137.452 136.011 137.687C135.818 137.874 135.631 138.054 135.437 138.241C135.195 138.469 134.953 138.698 134.71 138.919C134.51 139.099 134.309 139.279 134.108 139.459C133.859 139.681 133.61 139.895 133.354 140.11C133.147 140.283 132.946 140.456 132.731 140.629C132.475 140.837 132.219 141.051 131.956 141.252C131.749 141.418 131.534 141.584 131.32 141.75C131.057 141.951 130.787 142.152 130.524 142.353C130.31 142.512 130.088 142.671 129.874 142.83C129.604 143.024 129.327 143.218 129.05 143.405C128.829 143.557 128.614 143.709 128.393 143.855C128.109 144.041 127.818 144.228 127.535 144.408C127.313 144.547 127.092 144.692 126.87 144.831C126.663 144.962 126.448 145.08 126.234 145.211C125.23 132.115 122.296 118.556 117.64 105.515C129.175 102.919 140.883 102.836 151.941 105.3C151.941 105.335 151.941 105.37 151.934 105.397H151.927ZM114.401 97.2227C112.837 93.5195 111.163 89.8994 109.364 86.397C120.947 81.1296 131.458 74.0486 140.177 65.6525C147.346 74.367 151.519 85.0334 152.162 96.3367C139.921 93.8794 127.037 94.184 114.394 97.2227H114.401ZM47.342 86.5562C47.5427 85.7464 47.7641 84.9365 48.0063 84.1336C48.0479 83.9882 48.0963 83.8359 48.1378 83.6906C48.38 82.9084 48.636 82.1332 48.9128 81.3649C48.9336 81.3095 48.9474 81.2611 48.9682 81.2057C49.0028 81.1088 49.0374 81.0119 49.072 80.915C49.3557 80.1536 49.6532 79.406 49.9646 78.6585C50.0131 78.5477 50.0546 78.4439 50.103 78.3331C50.1099 78.3124 50.1238 78.2916 50.1307 78.2639C50.4559 77.5026 50.8019 76.755 51.1687 76.0144C51.224 75.8967 51.2863 75.779 51.3416 75.6544C51.7153 74.9069 52.1028 74.1732 52.5111 73.4464C52.5734 73.3288 52.6356 73.218 52.7048 73.1073C53.1062 72.4012 53.5283 71.7021 53.9642 71.01C54.0127 70.9338 54.0611 70.8576 54.1095 70.7815C54.1372 70.733 54.1718 70.6846 54.2064 70.6362C54.6493 69.944 55.1129 69.2657 55.5834 68.6012C55.6665 68.4835 55.7564 68.3589 55.8395 68.2412C56.3238 67.5698 56.829 66.9054 57.348 66.2547C57.431 66.1509 57.521 66.047 57.604 65.9432C58.1299 65.2925 58.6696 64.6489 59.2301 64.019C59.2993 63.9359 59.3754 63.8597 59.4446 63.7767C60.019 63.1329 60.6141 62.51 61.223 61.894C61.2922 61.8247 61.3545 61.7624 61.4237 61.6932C62.0188 61.1049 62.6208 60.5234 63.2436 59.9628C63.2989 59.9143 63.3543 59.859 63.4096 59.8105C63.4442 59.7828 63.4719 59.7551 63.5065 59.7274C64.1293 59.1737 64.7659 58.6338 65.4094 58.1009C65.5132 58.0178 65.617 57.9278 65.7208 57.8447C66.3782 57.3187 67.0425 56.8134 67.7275 56.3151C67.8452 56.232 67.9628 56.142 68.0874 56.059C68.7724 55.5675 69.4713 55.0899 70.1841 54.633C70.2948 54.5638 70.4124 54.4877 70.5231 54.4185C71.2566 53.9548 71.997 53.5048 72.7582 53.0756C72.8136 53.048 72.8689 53.0133 72.9243 52.9857C81.83 60.738 89.9883 70.6361 96.7973 81.9394C80.3699 87.719 63.0221 89.3941 47.2936 86.7223C47.3074 86.66 47.3213 86.6046 47.3351 86.5423L47.342 86.5562ZM101.593 46.2369C101.876 46.2508 102.16 46.2784 102.444 46.2923C103.018 46.3269 103.586 46.3685 104.153 46.4169C104.485 46.4515 104.817 46.4931 105.149 46.5277C105.661 46.5831 106.174 46.6453 106.686 46.7214C107.038 46.7699 107.384 46.8323 107.73 46.8876C108.222 46.9707 108.706 47.0538 109.191 47.1437C109.543 47.213 109.896 47.2821 110.249 47.3583C110.727 47.4621 111.204 47.5659 111.675 47.6836C112.028 47.7666 112.374 47.8566 112.72 47.9466C113.19 48.0712 113.661 48.2028 114.131 48.3412C114.47 48.4381 114.809 48.5419 115.148 48.6457C115.626 48.798 116.103 48.9572 116.581 49.1233C116.899 49.2341 117.217 49.3379 117.536 49.4556C118.048 49.6494 118.56 49.8501 119.065 50.0578C119.335 50.1685 119.605 50.2654 119.868 50.3831C120.594 50.6946 121.314 51.0199 122.027 51.3591C122.096 51.3937 122.172 51.4283 122.241 51.4629C122.961 51.809 123.674 52.1758 124.372 52.5565C124.628 52.6949 124.878 52.8403 125.127 52.9857C125.604 53.2556 126.082 53.5255 126.559 53.8162C126.85 53.9893 127.126 54.1762 127.41 54.3562C127.839 54.6261 128.261 54.8961 128.683 55.1799C128.981 55.3806 129.272 55.5883 129.562 55.789C129.964 56.0728 130.365 56.3566 130.759 56.6542C131.05 56.8688 131.334 57.0903 131.624 57.3118C132.012 57.6163 132.399 57.9209 132.78 58.2393C133.057 58.4677 133.333 58.703 133.61 58.9384C133.756 59.063 133.901 59.2014 134.046 59.326C125.895 67.1753 116.006 73.7648 105.094 78.6447C98.4234 67.3138 90.4519 57.2426 81.6985 49.0403C87.2343 47.1299 93.033 46.1608 99.0116 46.1608C99.8766 46.1608 100.735 46.1816 101.593 46.2231V46.2369ZM45.9166 95.4368C51.2586 96.3366 56.7598 96.7866 62.3371 96.7866C75.1939 96.7866 88.4729 94.4193 101.164 89.761C102.838 92.9796 104.416 96.2951 105.883 99.7006C105.143 99.9498 104.409 100.199 103.676 100.469C85.0615 107.356 69.6374 119.615 59.6384 135.278C50.7673 125.526 45.7644 112.741 45.7644 99.4376C45.7644 98.1017 45.8197 96.7658 45.9166 95.4368ZM96.6589 152.645C96.4029 152.631 96.1469 152.611 95.8908 152.597C95.3649 152.569 94.8459 152.534 94.32 152.486C94.0156 152.458 93.718 152.424 93.4136 152.389C92.943 152.341 92.4656 152.285 91.995 152.223C91.6767 152.181 91.3584 152.133 91.0401 152.085C90.5903 152.015 90.1405 151.946 89.6907 151.863C89.3655 151.808 89.0403 151.745 88.722 151.676C88.2791 151.586 87.8432 151.496 87.4072 151.399C87.082 151.33 86.7637 151.254 86.4454 151.171C86.0095 151.067 85.5735 150.949 85.1445 150.839C84.8262 150.756 84.5148 150.666 84.2034 150.576C83.7675 150.451 83.3315 150.313 82.8956 150.174C82.5911 150.077 82.2936 149.987 81.9891 149.883C81.5393 149.731 81.0895 149.565 80.6467 149.406C80.3699 149.302 80.0862 149.205 79.8094 149.094C79.325 148.907 78.8406 148.707 78.3563 148.499C78.1279 148.402 77.8995 148.312 77.6712 148.215C76.9792 147.911 76.2942 147.592 75.616 147.26C75.6022 147.26 75.5884 147.246 75.5745 147.239C74.8756 146.9 74.1906 146.54 73.5055 146.166C73.3049 146.056 73.1042 145.931 72.8966 145.82C72.426 145.557 71.9555 145.287 71.4919 145.01C71.2428 144.858 70.9937 144.699 70.7446 144.54C70.3363 144.284 69.928 144.028 69.5267 143.758C69.2637 143.585 69.0008 143.398 68.7447 143.218C68.3642 142.955 67.9905 142.692 67.6168 142.415C67.347 142.221 67.084 142.02 66.8211 141.82C66.6204 141.667 66.4197 141.508 66.2191 141.349C75.1386 126.647 89.407 115.136 106.741 108.72C107.53 108.429 108.333 108.159 109.135 107.889C114.076 121.525 117.01 135.763 117.674 149.323C116.906 149.613 116.131 149.883 115.356 150.133C115.148 150.202 114.934 150.257 114.726 150.319C114.117 150.506 113.502 150.693 112.886 150.859C112.581 150.942 112.27 151.012 111.958 151.095C111.433 151.226 110.907 151.351 110.374 151.469C110.042 151.545 109.703 151.607 109.364 151.676C108.851 151.78 108.339 151.87 107.82 151.96C107.481 152.015 107.135 152.071 106.789 152.119C106.263 152.195 105.738 152.264 105.205 152.32C104.873 152.361 104.547 152.396 104.215 152.431C103.634 152.486 103.053 152.528 102.471 152.562C102.188 152.583 101.911 152.604 101.627 152.618C100.762 152.659 99.8904 152.687 99.0186 152.687C98.2297 152.687 97.4478 152.666 96.6658 152.631L96.6589 152.645Z" fill="#FFEDD6"/>
</svg>
