<svg width="198" height="199" viewBox="0 0 198 199" fill="none" xmlns="http://www.w3.org/2000/svg">
<path d="M99.3263 0.979553H98.8764C44.4598 0.979553 0.346558 45.1059 0.346558 99.5385V99.9884C0.346558 154.421 44.4598 198.547 98.8764 198.547H99.3263C153.743 198.547 197.856 154.421 197.856 99.9884V99.5385C197.856 45.1059 153.743 0.979553 99.3263 0.979553Z" fill="#14542E"/>
<path fill-rule="evenodd" clip-rule="evenodd" d="M98.5583 31C59.5414 31 28 62.854 28 102.262C28 133.763 48.2097 160.427 76.2458 169.865C79.7511 170.574 81.035 168.331 81.035 166.445C81.035 164.793 80.9195 159.13 80.9195 153.23C61.2918 157.478 57.2046 144.735 57.2046 144.735C54.0503 136.476 49.3766 134.353 49.3766 134.353C42.9525 129.988 49.8446 129.988 49.8446 129.988C56.9706 130.46 60.7098 137.303 60.7098 137.303C67.0169 148.156 77.1803 145.09 81.269 143.201C81.8525 138.6 83.7228 135.415 85.7087 133.645C70.0542 131.993 53.5838 125.858 53.5838 98.4857C53.5838 90.6988 56.3857 84.328 60.8254 79.3732C60.1249 77.6039 57.6711 70.2876 61.5273 60.4954C61.5273 60.4954 67.4849 58.6073 80.918 67.8102C86.6692 66.2503 92.6004 65.4568 98.5583 65.4501C104.516 65.4501 110.589 66.2769 116.197 67.8102C129.632 58.6073 135.589 60.4954 135.589 60.4954C139.446 70.2876 136.99 77.6039 136.29 79.3732C140.847 84.328 143.533 90.6988 143.533 98.4857C143.533 125.858 127.062 131.874 111.291 133.645C113.862 135.887 116.08 140.133 116.08 146.859C116.08 156.415 115.965 164.085 115.965 166.443C115.965 168.331 117.25 170.574 120.754 169.866C148.79 160.426 169 133.763 169 102.262C169.115 62.854 137.458 31 98.5583 31Z" fill="#FFEDD6"/>
</svg>
