<svg width="198" height="199" viewBox="0 0 198 199" fill="none" xmlns="http://www.w3.org/2000/svg">
<path d="M99.1682 0.650208H98.7185C44.3019 0.650208 0.188477 44.7766 0.188477 99.2092V99.6591C0.188477 154.092 44.3019 198.218 98.7185 198.218H99.1682C153.585 198.218 197.698 154.092 197.698 99.6591V99.2092C197.698 44.7766 153.585 0.650208 99.1682 0.650208Z" fill="#14542e"/>
<path d="M47.291 66.317C44.6892 63.9013 43.3953 60.9111 43.3953 57.3533C43.3953 53.7955 44.6962 50.6738 47.291 48.2512C49.8929 45.8355 53.242 44.6242 57.3454 44.6242C61.4488 44.6242 64.6665 45.8355 67.2614 48.2512C69.8633 50.6669 71.1572 53.7056 71.1572 57.3533C71.1572 61.0011 69.8563 63.9013 67.2614 66.317C64.6596 68.7327 61.3589 69.944 57.3454 69.944C53.332 69.944 49.8929 68.7327 47.291 66.317ZM68.9706 80.1744V154.237H45.575V80.1744H68.9706Z" fill="#ffedd6"/>
<path d="M146.852 87.4906C151.952 93.028 154.498 100.628 154.498 110.305V152.929H132.279V113.309C132.279 108.429 131.013 104.636 128.487 101.936C125.962 99.2368 122.557 97.8802 118.294 97.8802C114.032 97.8802 110.627 99.2299 108.102 101.936C105.576 104.636 104.31 108.429 104.31 113.309V152.929H81.959V79.9667H104.31V89.6433C106.572 86.4177 109.624 83.8706 113.458 81.9948C117.291 80.119 121.602 79.1845 126.397 79.1845C134.936 79.1845 141.759 81.9532 146.852 87.4837V87.4906Z" fill="#ffedd6"/>
</svg>
