<svg width="199" height="199" viewBox="0 0 199 199" fill="none" xmlns="http://www.w3.org/2000/svg">
<path d="M99.2629 198.225C153.806 198.225 198.021 153.996 198.021 99.4376C198.021 44.8788 153.806 0.650208 99.2629 0.650208C44.7202 0.650208 0.504639 44.8788 0.504639 99.4376C0.504639 153.996 44.7202 198.225 99.2629 198.225Z" fill="#14542E"/>
<path d="M131.225 93.6095C148.933 101.064 157.645 118.908 151.867 137.376C147.929 149.98 136.713 160.162 124.693 164.765C109.539 170.586 89.1878 170.213 74.2412 164.011C43.9259 151.448 36.854 116.562 39.864 87.5391C41.9607 67.2237 50.4166 47.4205 69.086 37.2386C83.1538 29.5347 101.159 28.441 116.562 31.6665C132.554 35.0167 145.535 44.4788 153.403 58.8068C155.832 63.2021 157.797 68.0612 159.264 73.4671C159.305 73.6747 159.222 73.8893 159.015 73.9309L147.881 76.8657C147.673 76.9072 147.459 76.7826 147.417 76.6165C145.743 70.2485 143.106 64.5934 139.46 59.6582C128.07 44.1604 107.179 40.0142 89.174 43.2398C67.9443 47.0537 56.2222 61.9632 52.79 82.4377C49.9875 99.0638 50.8664 118.327 58.5265 133.659C64.9757 146.561 76.6562 153.801 90.724 155.815C98.3011 156.861 105.712 156.736 112.957 155.393C123.344 153.469 134.477 146.596 138.996 136.753C141.93 130.385 142.221 122.307 138.996 115.981C137.155 112.381 134.388 109.488 130.748 107.314C130.582 107.19 130.326 107.273 130.243 107.439C130.201 107.481 130.201 107.522 130.201 107.564C129.779 110.665 129.073 113.717 128.021 116.694C126.513 120.923 124.34 124.57 121.448 127.54C111.732 137.549 94.8206 138.428 83.3892 131.222C74.2621 125.443 70.8298 113.634 75.1823 103.916C79.7009 93.8655 90.7586 89.5118 101.263 89.0065C107.207 88.7158 112.694 88.9649 117.759 89.6779C117.967 89.7194 118.133 89.5533 118.181 89.3456V89.221C117.718 86.9161 117.178 85.0334 116.507 83.566C112.992 75.8205 105.076 73.7647 97.1663 74.7684C92.1011 75.3982 88.1222 77.7863 85.1467 81.8909C85.0221 82.057 84.8145 82.0985 84.6415 81.9739L75.1823 75.5229C75.0163 75.3983 74.9748 75.1906 75.0994 74.976C80.1646 67.8536 87.0289 63.7074 95.7408 62.5792C102.944 61.617 111.02 62.7453 117.303 66.5592C126.721 72.3388 130.07 82.7284 130.907 93.2357C130.99 93.4433 131.073 93.5679 131.197 93.6095H131.225ZM86.0463 110.028C84.1641 116.354 88.5167 121.338 94.4192 122.84C102.709 124.937 111.919 123.089 115.856 114.589C117.407 111.239 118.327 107.301 118.617 102.822C118.617 102.615 118.493 102.448 118.327 102.448C112.175 101.237 105.851 100.981 99.4014 101.611C94.1701 102.158 87.6793 104.546 86.0463 110.028Z" fill="#FFEDD6"/>
</svg>
