<svg width="198" height="199" viewBox="0 0 198 199" fill="none" xmlns="http://www.w3.org/2000/svg">
<path d="M197.495 99.76C197.495 149.652 160.523 190.899 112.493 197.592C108.003 198.215 103.408 198.54 98.744 198.54C93.3604 198.54 88.0738 198.111 82.9255 197.281C35.906 189.708 -0.00738525 148.925 -0.00738525 99.76C-0.00738525 45.2026 44.2096 0.972595 98.7509 0.972595C153.292 0.972595 197.509 45.2026 197.509 99.76H197.495Z" fill="#14542E"/>
<path d="M40.044 44.5451L85.5896 105.457L39.7603 154.982H50.0776L90.2051 111.624L122.624 154.982H157.728L109.622 90.644L152.282 44.5451H141.965L105.013 84.4767L75.1547 44.5451H40.0509H40.044ZM55.212 52.1452H71.335L142.546 147.382H126.423L55.212 52.1452Z" fill="#FFEDD6"/>
</svg>
